<?xml version="1.0" encoding="UTF-8" standalone="no"?>
<svg
   xmlns:dc="http://purl.org/dc/elements/1.1/"
   xmlns:cc="http://creativecommons.org/ns#"
   xmlns:rdf="http://www.w3.org/1999/02/22-rdf-syntax-ns#"
   xmlns:svg="http://www.w3.org/2000/svg"
   xmlns="http://www.w3.org/2000/svg"
   xmlns:sodipodi="http://sodipodi.sourceforge.net/DTD/sodipodi-0.dtd"
   xmlns:inkscape="http://www.inkscape.org/namespaces/inkscape"
   version="1.1"
   x="0px"
   y="0px"
   viewBox="0 0 100 125"
   style="enable-background:new 0 0 100 100;"
   xml:space="preserve"
   id="svg30"
   sodipodi:docname="house.svg"
   inkscape:version="0.92.2 (5c3e80d, 2017-08-06)"><metadata
     id="metadata36"><rdf:RDF><cc:Work
         rdf:about=""><dc:format>image/svg+xml</dc:format><dc:type
           rdf:resource="http://purl.org/dc/dcmitype/StillImage" /></cc:Work></rdf:RDF></metadata><defs
     id="defs34" /><sodipodi:namedview
     pagecolor="#ffffff"
     bordercolor="#666666"
     borderopacity="1"
     objecttolerance="10"
     gridtolerance="10"
     guidetolerance="10"
     inkscape:pageopacity="0"
     inkscape:pageshadow="2"
     inkscape:window-width="3200"
     inkscape:window-height="1644"
     id="namedview32"
     showgrid="false"
     inkscape:zoom="10.536"
     inkscape:cx="50"
     inkscape:cy="62.5"
     inkscape:window-x="-16"
     inkscape:window-y="-16"
     inkscape:window-maximized="1"
     inkscape:current-layer="svg30" /><path
     d="M93,90.9h-5V45l2.5,1.8h0c0.2,0.1,0.3,0.2,0.5,0.2c0,0,0.1,0,0.1,0c0.2,0,0.3,0.1,0.5,0.1c0.2,0,0.3,0,0.4,0  c0,0,0.1,0,0.1,0c0.1,0,0.2-0.1,0.3-0.1c0,0,0.1,0,0.1-0.1c0.1,0,0.2-0.1,0.2-0.2c0,0,0.1-0.1,0.1-0.1c0.1-0.1,0.2-0.2,0.3-0.3  c0,0,0,0,0,0c0,0,0,0,0,0c0.1-0.1,0.1-0.2,0.2-0.3c0,0,0,0,0-0.1c0-0.1,0-0.1,0.1-0.2c0-0.1,0-0.1,0-0.2c0,0,0-0.1,0-0.1  c0-0.1,0-0.2,0-0.3c0,0,0,0,0,0v-9c0,0,0-0.1,0-0.1c0-0.1,0-0.2,0-0.2c0-0.1,0-0.1-0.1-0.2c0-0.1,0-0.1,0-0.2c0-0.1-0.1-0.1-0.1-0.2  c0-0.1-0.1-0.1-0.1-0.2c0,0-0.1-0.1-0.1-0.1c0-0.1-0.1-0.1-0.1-0.2c-0.1-0.1-0.1-0.1-0.2-0.2c0,0-0.1-0.1-0.1-0.1l-41.7-29  c0,0,0,0,0,0c-0.1,0-0.1-0.1-0.2-0.1c0,0-0.1-0.1-0.1-0.1c-0.1,0-0.1,0-0.2-0.1c-0.1,0-0.1,0-0.2,0c-0.1,0-0.1,0-0.2,0  c-0.1,0-0.1,0-0.2,0s-0.1,0-0.2,0c-0.1,0-0.1,0-0.2,0s-0.1,0-0.2,0c-0.1,0-0.1,0-0.2,0.1c0,0-0.1,0.1-0.1,0.1  c-0.1,0-0.1,0.1-0.2,0.1c0,0,0,0,0,0l-43,29c-0.1,0.1-0.2,0.2-0.3,0.2c0,0-0.1,0.1-0.1,0.2S5.4,35,5.3,35c0,0.1-0.1,0.1-0.1,0.2  c0,0.1-0.1,0.1-0.1,0.2c0,0.1,0,0.1-0.1,0.2c0,0.1,0,0.1,0,0.2c0,0.1,0,0.3,0,0.4v9c0,0.1,0,0.3,0,0.4c0,0.1,0,0.1,0,0.2  c0,0.1,0,0.1,0.1,0.2c0.1,0.3,0.3,0.5,0.5,0.7c0,0,0.1,0.1,0.1,0.1c0.1,0.1,0.2,0.1,0.3,0.2c0,0,0.1,0,0.1,0.1C6.2,47,6.3,47,6.4,47  c0,0,0.1,0,0.1,0c0.2,0,0.3,0,0.5,0c0,0,0,0,0,0c0.2,0,0.3,0,0.5-0.1c0,0,0.1,0,0.1,0C7.8,47,8,46.9,8.1,46.8l3.9-2.6v36.7  c-1.6,0-3,1.3-3,3v7H7c-1.1,0-2,0.9-2,2c0,1.1,0.9,2,2,2h86c1.1,0,2-0.9,2-2C95,91.8,94.1,90.9,93,90.9z M9,41.4v-4.2L50,9.5  l39.7,27.6v4.1L51.1,14.5c0,0,0,0,0,0c-0.1,0-0.1-0.1-0.2-0.1c0,0-0.1,0-0.1-0.1c-0.1,0-0.2,0-0.2-0.1c0,0-0.1,0-0.1,0  c-0.1,0-0.2,0-0.2,0c-0.1,0-0.1,0-0.2,0c-0.1,0-0.2,0-0.2,0c0,0-0.1,0-0.1,0c-0.1,0-0.2,0-0.2,0.1c-0.1,0-0.1,0-0.2,0  c0,0-0.1,0.1-0.2,0.1c-0.1,0-0.1,0.1-0.2,0.1c0,0,0,0,0,0L9,41.4z M47,90.9H13v-6h34V90.9z M23.3,80.9v-21c0-3.3,2.7-6,6-6  s6,2.7,6,6v21H23.3z M84,75.9h-8.7c-1.1,0-2,0.9-2,2c0,1.1,0.9,2,2,2H84v4H65.3c-1.1,0-2,0.9-2,2c0,1.1,0.9,2,2,2H84v3H51v-7  c0-1.7-1.3-3-3-3h-8.7v-21c0-5.5-4.5-10-10-10s-10,4.5-10,10v21H16V41.5l34-22.9l34,23.7V75.9z M32.8,66c0.4,0.4,0.6,0.9,0.6,1.4  c0,0.3,0,0.5-0.2,0.8c-0.1,0.2-0.2,0.5-0.4,0.6c-0.4,0.4-0.9,0.6-1.4,0.6c-0.3,0-0.5,0-0.8-0.2c-0.2-0.1-0.5-0.2-0.6-0.4  c-0.4-0.4-0.6-0.9-0.6-1.4c0-0.1,0-0.3,0-0.4c0-0.1,0.1-0.2,0.1-0.4c0.1-0.1,0.1-0.2,0.2-0.3c0.1-0.1,0.2-0.2,0.2-0.3  C30.7,65.2,32,65.2,32.8,66z M42,33.1c0,4.4,3.6,8,8,8c4.4,0,8-3.6,8-8c0-4.4-3.6-8-8-8C45.6,25.1,42,28.7,42,33.1z M50,29.1  c2.2,0,4,1.8,4,4c0,2.2-1.8,4-4,4c-2.2,0-4-1.8-4-4C46,30.9,47.8,29.1,50,29.1z M49,49.9v20c0,1.6,1.4,3,3,3h26c1.7,0,3-1.4,3-3v-20  c0-1.7-1.3-3-3-3H52C50.4,46.9,49,48.2,49,49.9z M73.3,50.9H77v18h-3.7V50.9z M61.3,50.9h8.1v18h-8.1V50.9z M53,50.9h4.3v18H53V50.9  z"
     id="path24" /></svg>