<svg xmlns:dc="http://purl.org/dc/elements/1.1/" xmlns:cc="http://creativecommons.org/ns#" xmlns:rdf="http://www.w3.org/1999/02/22-rdf-syntax-ns#" xmlns:svg="http://www.w3.org/2000/svg" xmlns="http://www.w3.org/2000/svg" xmlns:sodipodi="http://sodipodi.sourceforge.net/DTD/sodipodi-0.dtd" xmlns:inkscape="http://www.inkscape.org/namespaces/inkscape" version="1.1" x="0px" y="0px" viewBox="0 0 568.11798 752.181625" enable-background="new 0 0 595 842" xml:space="preserve"><path style="" d="m 283.991,0 c -99.425,0 -87.642,54.993802 -87.642,122.752 0,32.2888 7.096,59.1871 27.009,86.2902 16.455,22.471 38.577,37.8122 60.633,37.8122 22.125,0 44.313,-15.3412 60.768,-37.8122 19.913,-27.1031 27.009,-54.0014 27.009,-86.2902 C 371.768,54.993802 383.415,0 283.991,0 Z m -49.155,60.362302 c 5.532,0.058 11.791,1.8463 18.636,3.7817 9.334,2.6968 19.456,5.5385 30.519,5.5385 11.132,0 21.251,-2.911 30.654,-5.5385 13.69,-3.8713 25.351,-7.1234 32.681,2.9739 4.562,6.2916 4.653,14.1193 4.859,22.4168 0.145,6.4302 0.347,13.199698 2.158,20.391298 l 4.86,20.1211 c -0.145,25.3744 -9.988,51.7273 -24.577,71.5713 -14.243,19.3593 -32.736,32.41 -50.506,32.41 -17.838,-0.072 -36.262,-13.0507 -50.505,-32.41 -14.589,-19.9127 -24.505,-46.1969 -24.712,-71.5713 l 4.999,-20.1211 c 1.797,-7.1916 1.887,-13.961098 2.025,-20.391298 0.145,-8.2975 0.277,-16.0559 4.861,-22.4168 3.665,-5.0472 8.513,-6.8039 14.045,-6.7556 z M 156.647,269.4063 c -3.525,0.4843 -7.014,1.6106 -10.263,3.5122 l -28.359,16.6107 c -8.573,5.0472 -13.435,14.0973 -13.504,23.3616 l -77.918,45.6439 14.314,24.308 31.194,-18.3662 0,49.2901 21.878,0 0,-61.9834 24.712,-14.7195 c 8.158,4.425 18.434,4.5699 27.007,-0.4156 l 28.36,-16.475 c 12.998,-7.6054 17.463,-24.5426 9.858,-37.5415 -5.704,-9.7486 -16.694,-14.6077 -27.279,-13.2341 z m 200.537,7.9674 c -16.18,63.679 -31.271,85.8025 -56.853,135.4465 l -9.318,-83.0504 c -0.206,-1.8668 0.346,-3.471 1.217,-5.1305 l 9.993,-18.5006 c 0.553,-1.1065 0.622,-2.2678 0,-3.3743 -0.553,-1.1059 -1.59,-1.7555 -2.835,-1.7555 l -29.708,0 c -1.246,0 -2.213,0.6216 -2.835,1.7555 -0.622,1.0373 -0.622,2.2683 0,3.3743 l 9.992,18.5006 c 0.968,1.7288 1.425,3.2637 1.217,5.1305 l -10.263,83.3205 -56.988,-135.5815 c -5.393,1.1757 -10.617,2.461 -15.664,3.9132 7.467,17.3546 0.995,38.0561 -15.665,47.8047 l -28.359,16.7445 c -9.679,5.67 -21.363,6.5687 -31.735,2.9738 l -1.079,0.691 0,2.0262 0.276,62.119 c 110.349,0 220.707,0.073 330.986,0 l 0.145,-62.119 c 0,-37.9589 -40.163,-62.7256 -92.503,-74.2722 z M 0,430.9151 l 0,17.4204 568.118,0 0,-17.4204 -568.118,0 z m 21.201,38.0817 63.604,45.779 c 1.59,1.1758 2.434,2.8632 2.434,4.7293 l 0,44.4286 c 0,20.8121 17,37.8116 37.811,37.8116 l 318.023,0 c 20.811,0 37.81,-16.9308 37.81,-37.8116 l 0,-44.4286 c 0,-1.9359 0.844,-3.6234 2.434,-4.7293 l 63.604,-45.779 -525.714,0 z" clip-rule="evenodd" fill="#000000" fill-rule="evenodd"/><text x="0" y="616.7453" fill="#000000" font-size="5px" font-weight="bold" font-family="'Helvetica Neue', Helvetica, Arial-Unicode, Arial, Sans-serif">Created by jeff</text><text x="0" y="621.7453" fill="#000000" font-size="5px" font-weight="bold" font-family="'Helvetica Neue', Helvetica, Arial-Unicode, Arial, Sans-serif">from the Noun Project</text></svg>