<?xml version="1.0" encoding="UTF-8" standalone="no"?>
<!-- Created with Inkscape (http://www.inkscape.org/) -->

<svg
   xmlns:dc="http://purl.org/dc/elements/1.1/"
   xmlns:cc="http://creativecommons.org/ns#"
   xmlns:rdf="http://www.w3.org/1999/02/22-rdf-syntax-ns#"
   xmlns:svg="http://www.w3.org/2000/svg"
   xmlns="http://www.w3.org/2000/svg"
   xmlns:sodipodi="http://sodipodi.sourceforge.net/DTD/sodipodi-0.dtd"
   xmlns:inkscape="http://www.inkscape.org/namespaces/inkscape"
   width="300"
   height="200"
   viewBox="0 0 79.375002 52.916669"
   version="1.1"
   id="svg8"
   inkscape:version="0.92.2 (5c3e80d, 2017-08-06)"
   sodipodi:docname="measure.svg">
  <defs
     id="defs2" />
  <sodipodi:namedview
     id="base"
     pagecolor="#ffffff"
     bordercolor="#666666"
     borderopacity="1.0"
     inkscape:pageopacity="0.0"
     inkscape:pageshadow="2"
     inkscape:zoom="3.959798"
     inkscape:cx="258.53171"
     inkscape:cy="137.22274"
     inkscape:document-units="px"
     inkscape:current-layer="layer1"
     showgrid="false"
     units="px"
     inkscape:pagecheckerboard="true"
     inkscape:window-width="3200"
     inkscape:window-height="1644"
     inkscape:window-x="-16"
     inkscape:window-y="-16"
     inkscape:window-maximized="1" />
  <metadata
     id="metadata5">
    <rdf:RDF>
      <cc:Work
         rdf:about="">
        <dc:format>image/svg+xml</dc:format>
        <dc:type
           rdf:resource="http://purl.org/dc/dcmitype/StillImage" />
        <dc:title></dc:title>
      </cc:Work>
    </rdf:RDF>
  </metadata>
  <g
     inkscape:label="Layer 1"
     inkscape:groupmode="layer"
     id="layer1"
     transform="translate(0,-244.08332)">
    <rect
       style="opacity:0;fill:#ff0000;fill-opacity:1;stroke:#040000;stroke-width:1.32291663;stroke-linecap:butt;stroke-linejoin:miter;stroke-miterlimit:4;stroke-dasharray:none;stroke-opacity:1"
       id="rect815"
       width="23.434523"
       height="75.595238"
       x="36.285713"
       y="54.339287" />
    <path
       style="opacity:0;fill:#000000;fill-opacity:1;stroke:#040000;stroke-width:5;stroke-linecap:butt;stroke-linejoin:miter;stroke-miterlimit:4;stroke-dasharray:none;stroke-opacity:1"
       d="M 174.28516,336.80469 V 582.51953 H 505.71484 V 336.80469 Z"
       transform="scale(0.26458333)"
       id="rect817"
       inkscape:connector-curvature="0" />
    <rect
       style="opacity:0;fill:#1a1a1a;fill-opacity:1;stroke:#040000;stroke-width:1.32291663;stroke-linecap:butt;stroke-linejoin:miter;stroke-miterlimit:4;stroke-dasharray:none;stroke-opacity:1"
       id="rect823"
       width="11.893495"
       height="14.833458"
       x="24.722431"
       y="85.990707" />
    <rect
       style="opacity:0;fill:#1a1a1a;fill-opacity:1;stroke:#040000;stroke-width:1.32291663;stroke-linecap:butt;stroke-linejoin:miter;stroke-miterlimit:4;stroke-dasharray:none;stroke-opacity:1"
       id="rect825"
       width="15.501633"
       height="12.160764"
       x="40.758602"
       y="84.520729" />
    <rect
       style="opacity:0;fill:#1a1a1a;fill-opacity:1;stroke:#040000;stroke-width:1.32291663;stroke-linecap:butt;stroke-linejoin:miter;stroke-miterlimit:4;stroke-dasharray:none;stroke-opacity:1"
       id="rect827"
       width="22.183371"
       height="9.7553377"
       x="36.081387"
       y="107.63953" />
    <rect
       style="opacity:0;fill:#1a1a1a;fill-opacity:1;stroke:#040000;stroke-width:1.32291663;stroke-linecap:butt;stroke-linejoin:miter;stroke-miterlimit:4;stroke-dasharray:none;stroke-opacity:1"
       id="rect829"
       width="13.363476"
       height="26.459681"
       x="39.021351"
       y="136.90555" />
    <rect
       style="opacity:0;fill:#1a1a1a;fill-opacity:1;stroke:#040000;stroke-width:1.32291663;stroke-linecap:butt;stroke-linejoin:miter;stroke-miterlimit:4;stroke-dasharray:none;stroke-opacity:1"
       id="rect831"
       width="28.998743"
       height="41.426773"
       x="34.745037"
       y="90.935196" />
    <rect
       style="opacity:0;fill:#1a1a1a;fill-opacity:1;stroke:#040000;stroke-width:1.32299995;stroke-linecap:butt;stroke-linejoin:miter;stroke-miterlimit:4;stroke-dasharray:0.13229999, 0.13229999;stroke-dashoffset:0;stroke-opacity:1"
       id="rect833"
       width="24.45516"
       height="31.003263"
       x="39.288624"
       y="101.3587" />
    <rect
       style="opacity:0;fill:#1a1a1a;fill-opacity:1;stroke:#040000;stroke-width:1.32299995;stroke-linecap:butt;stroke-linejoin:miter;stroke-miterlimit:4;stroke-dasharray:0.13229999, 0.13229999;stroke-dashoffset:0;stroke-opacity:1"
       id="rect835"
       width="1.3363476"
       height="2.0045214"
       x="-6.6817379"
       y="81.580757" />
    <rect
       style="opacity:0;fill:#1a1a1a;fill-opacity:1;stroke:#040000;stroke-width:1.32299995;stroke-linecap:butt;stroke-linejoin:miter;stroke-miterlimit:4;stroke-dasharray:0.13229999, 0.13229999;stroke-dashoffset:0;stroke-opacity:1"
       id="rect837"
       width="51.568516"
       height="51.561001"
       x="8.15172"
       y="78.373528" />
    <rect
       style="opacity:0;fill:#1a1a1a;fill-opacity:1;stroke:#040000;stroke-width:1.32299995;stroke-linecap:butt;stroke-linejoin:miter;stroke-miterlimit:4;stroke-dasharray:0.13229999, 0.13229999;stroke-dashoffset:0;stroke-opacity:1"
       id="rect839"
       width="41.694046"
       height="0.66817379"
       x="23.653353"
       y="134.7674" />
    <rect
       style="opacity:0;fill:#1a1a1a;fill-opacity:1;stroke:#040000;stroke-width:1.32299995;stroke-linecap:butt;stroke-linejoin:miter;stroke-miterlimit:4;stroke-dasharray:0.13229999, 0.13229999;stroke-dashoffset:0;stroke-opacity:1"
       id="rect841"
       width="100.09244"
       height="0.93544334"
       x="-0.13363476"
       y="102.82869" />
    <rect
       style="opacity:0;fill:#1a1a1a;fill-opacity:1;stroke:#040000;stroke-width:1.32299995;stroke-linecap:butt;stroke-linejoin:miter;stroke-miterlimit:4;stroke-dasharray:0.13229999, 0.13229999;stroke-dashoffset:0;stroke-opacity:1"
       id="rect843"
       width="74.969101"
       height="64.812859"
       x="49.712132"
       y="80.511681" />
    <rect
       style="opacity:0;fill:#1a1a1a;fill-opacity:1;stroke:#040000;stroke-width:1.32299995;stroke-linecap:butt;stroke-linejoin:miter;stroke-miterlimit:4;stroke-dasharray:0.13229999, 0.13229999;stroke-dashoffset:0;stroke-opacity:1"
       id="rect845"
       width="99.023354"
       height="32.205978"
       x="50.647575"
       y="76.636276" />
    <rect
       style="opacity:0.88899997;fill:#670000;fill-opacity:1;stroke:#000000;stroke-width:1.32299995;stroke-linecap:butt;stroke-linejoin:miter;stroke-miterlimit:4;stroke-dasharray:0.13229999, 0.13229999;stroke-dashoffset:0;stroke-opacity:1"
       id="rect4538"
       width="0.8018086"
       height="0.4009043"
       x="155.14996"
       y="150.00175" />
    <path
       style="fill:#000000;fill-opacity:1;stroke:#000000;stroke-width:0.26458332px;stroke-linecap:butt;stroke-linejoin:miter;stroke-opacity:1"
       d="M 6.6328506,292.7698 C 5.125938,292.34369 5.4244505,278.42728 5.4244505,278.42728 c 0,0 -0.3579602,-2.21885 1.1330763,-2.11226 1.4910281,0.10657 6.3463672,-1.84576 6.3463672,-1.84576 0,0 1.254877,0.3373 -0.283821,-0.72779 -1.538689,-1.06512 -1.297243,-1.18936 -2.326564,-1.97043 -1.0293192,-0.78106 -1.2178083,0.40822 -1.8119063,-1.57986 -0.5941019,-1.98809 -1.0610957,-1.42012 -0.641764,-2.94661 0.4193416,-1.52656 -0.037069,-0.74553 -0.1165067,-2.34308 -0.079438,-1.59755 -1.1034613,-2.27213 -0.6364573,-2.84011 0.4669924,-0.56803 1.6371456,-1.93477 3.1228693,-1.9347 1.485731,-2.3e-4 7.805619,-2.3782 8.803178,-2.23616 0.997542,0.14205 3.22878,0.1954 5.701468,0.12453 2.472694,-0.0709 6.839849,-1.88128 6.839849,-1.88128 0,0 -1.254878,-0.3373 -0.04766,-0.9585 1.207216,-0.62121 3.637534,-1.54414 3.637534,-1.54414 l 6.179073,-0.23046 c 0,0 1.838375,2.11238 1.119347,2.59163 -0.719031,0.47921 0.04766,0.95853 -2.66117,1.26015 -2.708836,0.30164 -2.2842,-1.11839 -5.916449,0.53226 -3.632237,1.65063 -11.941921,3.8513 -11.941921,3.8513 0,0 -3.292343,-1.47345 -4.520742,-1.27824 -1.228397,0.19521 -5.10738,1.86357 -5.075605,2.5026 0.03179,0.63901 2.395408,3.35496 2.395408,3.35496 l 4.106701,2.91129 4.852214,2.96455 c 0,0 5.685583,-0.19496 7.670091,-0.12388 1.9845,0.0711 9.455521,0.92343 9.455521,0.92343 0,0 1.485727,-2.3e-4 1.533392,0.95862 0.04766,0.95852 0.28597,5.75119 -1.95587,5.48483 -2.241831,-0.26635 -5.250364,-1.01202 -7.014602,-1.63337 -1.764245,-0.62135 -1.811908,-1.5799 -5.791505,-1.93507 -3.979599,-0.35522 -4.279299,-1.40251 -6.95106,-0.35533 -2.671766,1.04715 -4.603307,2.0411 -4.603307,2.0411 0,0 -0.199087,0.97627 -0.172607,1.50879 l 0.06355,1.27804 c 0.02648,0.53249 3.796406,1.65097 3.796406,1.65097 l 5.855055,3.21312 c 0,0 3.218196,-0.0176 4.231635,0.44396 1.013434,0.46156 4.122586,3.2308 0.416213,3.39037 -3.706382,0.15956 1.002851,0.24855 -6.173769,0.33697 l -7.176619,0.0884 c 0,0 -0.51995,-0.49704 -2.010978,-0.60362 -1.491026,-0.10658 -5.3753012,1.45531 -5.3753012,1.45531 z"
       id="path4542"
       inkscape:connector-curvature="0"
       sodipodi:nodetypes="ccccccccscccsccccccccsscccccssccscssccccccccc" />
  </g>
</svg>
