<svg xmlns="http://www.w3.org/2000/svg" data-name="Layer 1" viewBox="0 0 100 125" x="0px" y="0px"><title>Artboard 18</title><path d="M99.57,74.5v9.11H34.91V74.5a6.53,6.53,0,0,1,2.42-5A104.3,104.3,0,0,1,54,58.51c.38.87,3.94,9.07,6.31,12.79a.33.33,0,0,0,.58-.08c.58-1.69,2.36-6.07,5-5.85A.23.23,0,0,0,66,65c-2.2-1.75-7.45-6-9.47-8.41v-6a14.77,14.77,0,0,1-1.84-5C54,45.49,53,44.5,52,41c-1.26-4.45-.12-5.4,1-5.42-.11-.39-.2-.77-.27-1.16h0a14.11,14.11,0,0,1,0-6.35,13.81,13.81,0,0,1,3.7-6.5,17.82,17.82,0,0,1,3.43-2.83A13.34,13.34,0,0,1,63.24,17h0a11,11,0,0,1,3-.58A12.48,12.48,0,0,1,73.86,18a9.44,9.44,0,0,1,3.7,3.44s6.14.44,4.07,12.91c-.07.38-.16.77-.27,1.15,1.16,0,2.36.91,1.08,5.43-1,3.52-1.92,4.51-2.63,4.57a14.76,14.76,0,0,1-1.84,5v6c-2,2.39-7.28,6.66-9.47,8.41a.23.23,0,0,0,.14.41c2.62-.22,4.39,4.16,5,5.85a.33.33,0,0,0,.58.08c2.37-3.72,5.93-11.92,6.31-12.79A104.32,104.32,0,0,1,97.15,69.46,6.53,6.53,0,0,1,99.57,74.5ZM41.74,59.82l-1.07-.54a.55.55,0,0,1-.31-.49V53.1a13.68,13.68,0,0,0,1.71-4.66c.65-.05,1.51-1,2.44-4.23,1.22-4.31,0-5.08-1.1-5,2.76-12.65-4.35-12.69-4.35-12.69-.59-2.65-4.36-5.4-7.87-4.68s-10.75-.1-10.75-.1a3.41,3.41,0,0,0,1.21,2.59c-6.35,3.88-4.9,12.41-4.32,14.87-1.08,0-2.2.83-1,5,.92,3.27,1.78,4.18,2.44,4.23a13.68,13.68,0,0,0,1.71,4.66v5.69a.55.55,0,0,1-.31.49A97.08,97.08,0,0,0,2.58,70.55a6,6,0,0,0-2.16,4.6V83.6H30.38V74.49a10.91,10.91,0,0,1,4-8.46c2.5-2.05,5-3.9,7.44-5.52A.4.4,0,0,0,41.74,59.82Z"/><text x="0" y="115" fill="#000000" font-size="5px" font-weight="bold" font-family="'Helvetica Neue', Helvetica, Arial-Unicode, Arial, Sans-serif">Created by Gregor Cresnar</text><text x="0" y="120" fill="#000000" font-size="5px" font-weight="bold" font-family="'Helvetica Neue', Helvetica, Arial-Unicode, Arial, Sans-serif">from the Noun Project</text></svg>