<svg xmlns="http://www.w3.org/2000/svg" xmlns:xlink="http://www.w3.org/1999/xlink" version="1.1" x="0px" y="0px" viewBox="0 0 100 125" style="enable-background:new 0 0 100 100;" xml:space="preserve"><path d="M19.219,69.396V89c0,0.553,0.447,1,1,1h59.583c0.553,0,1-0.447,1-1V69.396c0-9.639-6.862-17.506-15.432-17.921l0.101-0.181  c0.231-0.419,0.135-0.942-0.231-1.25l-2.374-1.998c6.017-0.8,9.012-3.362,9.164-3.496c0.263-0.232,0.385-0.585,0.321-0.929  c-0.062-0.345-0.301-0.632-0.628-0.756c-3.526-1.339-5.43-6.844-5.733-7.79c0.952-2.194,1.489-4.614,1.489-7.161  c0-9.842-7.892-17.849-17.592-17.849s-17.592,8.007-17.592,17.849c0,2.625,0.576,5.112,1.584,7.359  c-0.003,0.011-0.012,0.019-0.015,0.03c-0.017,0.061-1.684,6.108-5.51,7.562c-0.327,0.124-0.565,0.411-0.628,0.756  c-0.063,0.344,0.059,0.696,0.321,0.929c0.152,0.134,3.167,2.713,9.226,3.504l-2.364,1.99c-0.366,0.308-0.463,0.831-0.231,1.25  l0.097,0.174C26.147,51.811,19.219,59.71,19.219,69.396z M64.666,53.435c0.834,0,1.648,0.098,2.443,0.255  c-1.63,3.402-4.261,6.257-7.497,8.17l4.671-8.425H64.666z M56.234,63.825l-4.356-3.651l8.763-11.389l2.682,2.258L56.234,63.825z   M34.295,27.913c0-0.684,0.057-1.354,0.14-2.015c0.405,0.066,1.433,0.204,2.951,0.204c3.43,0,9.311-0.718,15.876-4.589  c1.219,1.692,4.867,5.789,12.175,7.221c-0.424,8.357-7.225,15.029-15.551,15.029C41.289,43.762,34.295,36.652,34.295,27.913z   M43.114,44.382c2.086,0.886,4.373,1.379,6.772,1.379c2.565,0,4.997-0.573,7.196-1.579v5.947l-7.009,9.109l-6.96-9.046V44.382z   M50.074,61.272l3.448,2.89c-2.278,0.424-4.639,0.428-6.918,0.018L50.074,61.272z M69.434,43.891  c-1.708,0.966-5.151,2.386-10.351,2.378V43.1c2.284-1.429,4.22-3.365,5.656-5.663C65.553,39.366,67.079,42.249,69.434,43.891z   M65.417,26.688c-6.183-1.336-9.367-4.804-10.45-6.244c1.749-1.162,3.533-2.55,5.324-4.22c0.015-0.014,0.021-0.033,0.035-0.048  C63.201,18.82,65.102,22.527,65.417,26.688z M49.887,12.064c3.3,0,6.359,1.055,8.882,2.84C47.528,25.28,36.358,24.15,34.813,23.931  C36.557,17.117,42.644,12.064,49.887,12.064z M35.162,37.65c1.513,2.347,3.554,4.304,5.952,5.712v2.907  c-5.266,0.03-8.745-1.402-10.466-2.375C32.988,42.277,34.42,39.492,35.162,37.65z M39.508,48.785l8.763,11.389l-4.356,3.651  l-7.088-12.782L39.508,48.785z M40.597,61.969c-3.323-1.911-6.021-4.804-7.685-8.28c0.795-0.157,1.608-0.255,2.442-0.255h0.511  L40.597,61.969z M30.957,54.235c2.241,4.893,6.324,8.796,11.331,10.783l0.464,0.837c0.146,0.261,0.399,0.443,0.692,0.498  c0.061,0.011,0.122,0.017,0.183,0.017c0.233,0,0.461-0.081,0.643-0.233l0.401-0.336c1.734,0.456,3.528,0.695,5.339,0.695  c1.845,0,3.672-0.245,5.439-0.72l0.43,0.36c0.182,0.152,0.409,0.233,0.643,0.233c0.061,0,0.122-0.006,0.183-0.017  c0.293-0.055,0.547-0.237,0.692-0.498l0.499-0.9c0.01-0.004,0.021-0.002,0.031-0.006c4.916-2.005,8.927-5.895,11.136-10.714  c5.647,2.093,9.739,8.093,9.739,15.16V88H67.599v-6.256c0-0.553-0.447-1-1-1s-1,0.447-1,1V88H34.174v-6.256c0-0.553-0.447-1-1-1  s-1,0.447-1,1V88H21.219V69.396C21.219,62.329,25.311,56.329,30.957,54.235z"/><text x="0" y="115" fill="#000000" font-size="5px" font-weight="bold" font-family="'Helvetica Neue', Helvetica, Arial-Unicode, Arial, Sans-serif">Created by Made</text><text x="0" y="120" fill="#000000" font-size="5px" font-weight="bold" font-family="'Helvetica Neue', Helvetica, Arial-Unicode, Arial, Sans-serif">from the Noun Project</text></svg>